<?xml version="1.0" standalone="no"?><!DOCTYPE svg PUBLIC "-//W3C//DTD SVG 1.1//EN" "http://www.w3.org/Graphics/SVG/1.1/DTD/svg11.dtd"><svg t="1576418906163" class="icon" viewBox="0 0 1024 1024" version="1.1" xmlns="http://www.w3.org/2000/svg" p-id="1116" xmlns:xlink="http://www.w3.org/1999/xlink" width="200" height="200"><defs><style type="text/css"></style></defs><path d="M510.964926 81.298608c-239.21522 0-433.834756 194.641025-433.834756 433.831686 0 239.240803 194.619536 433.855222 433.834756 433.855222 239.213173 0 433.855222-194.615443 433.855222-433.855222C944.820148 275.939633 750.178099 81.298608 510.964926 81.298608zM510.964926 893.165186c-208.445426 0-378.01238-169.570024-378.01238-378.035916 0-208.416773 169.566954-378.011356 378.01238-378.011356 208.442356 0 378.034892 169.594583 378.034892 378.011356C888.999818 723.595162 719.407282 893.165186 510.964926 893.165186z" p-id="1117" fill="#3366ff"></path><path d="M389.732817 354.579691c4.137227 7.976672 12.313443 12.58769 20.762883 12.58769 3.617387 0 7.28287-0.844228 10.701736-2.626827 11.449773-5.921873 15.932878-20.019962 9.985422-31.466666l-26.879184-51.782364c-5.947456-11.470239-20.094664-15.880689-31.468712-10.008958-11.44568 5.972015-15.927761 20.018939-9.958816 31.515784L389.732817 354.579691z" p-id="1118" fill="#3366ff"></path><path d="M521.24506 494.341828c-10.256598-7.803733-24.877597-5.898337-32.751938 4.312212l-38.132482 49.673329c-6.566556-4.062526-12.090363-7.380084-16.551978-9.933233l0-31.984459c0-1.438769-0.568958-2.677992-0.840134-4.064572 41.59842-49.725518 55.969733-84.535325 56.886615-86.915535 4.706185-11.941983-1.116427-25.421996-13.057387-30.176276-3.269463-1.339508-6.639211-1.710968-9.911744-1.538029-0.418532 0-0.766456-0.198521-1.139963-0.198521L314.436924 383.516744c-12.883425 0-23.363104 10.457166-23.363104 23.340591 0 12.93152 10.479679 23.338544 23.363104 23.338544l114.021893 0c-21.457708 33.027208-64.742537 87.832418-143.776567 146.528238-10.354835 7.728008-12.487406 22.347984-4.780887 32.654724 4.558829 6.217608 11.618619 9.442046 18.755156 9.442046 4.856611 0 9.735735-1.486864 13.925151-4.612041 29.211299-21.680788 53.713342-42.887786 74.526367-62.956867l0 187.012278c0 12.883425 10.457166 23.341614 23.339568 23.341614 12.883425 0 23.362081-10.458189 23.362081-23.341614L433.809685 593.173764c19.574824 12.68695 42.046628 29.163203 55.449893 44.797275 4.63353 5.373381 11.17348 8.124028 17.740036 8.124028 5.377474 0 10.777461-1.809205 15.188934-5.573949 9.784854-8.401344 10.924817-23.11751 2.551102-32.951483-9.838066-11.472286-22.74298-22.595624-35.849486-32.680307l36.642548-47.76998C533.362029 516.863774 531.479145 502.195703 521.24506 494.341828z" p-id="1119" fill="#3366ff"></path><path d="M588.11812 268.680299c-12.883425 0-23.340591 10.480702-23.340591 23.364127l0 446.219831c0 12.883425 10.457166 23.341614 23.340591 23.341614s23.312962-10.458189 23.312962-23.341614L611.431082 292.043403C611.431082 279.159978 601.000522 268.680299 588.11812 268.680299z" p-id="1120" fill="#3366ff"></path><path d="M660.288836 438.867376c-9.116635-9.141194-23.882943-9.116635-33.000602-0.024559-9.144264 9.144264-9.144264 23.909549 0 33.027208l79.530334 79.533404c4.556783 4.558829 10.483772 6.837732 16.501836 6.837732 5.969968 0 11.94403-2.278903 16.502859-6.837732 9.117658-9.121751 9.117658-23.887037 0-33.003672L660.288836 438.867376z" p-id="1121" fill="#3366ff"></path></svg>